# xmcd CD database file
#
# Track frame offsets:
#	187
#	20775
#	44375
#	69187
#	89515
#	109762
#	133875
#	153525
#	173812
#	194925
#	216187
#	234150
#	263400
#	286800
#
# Disc length: 4127 seconds
#
# Revision: 1
# Processed by: cddbd v1.5.2PL0 Copyright (c) Steve Scherf et al.
# Submitted via: CDex 1.70beta3
#
DISCID=ca101d0e
DTITLE=谷村　新司 - ワン・アンド・オンリー
DYEAR=1900
DGENRE=JPop
TTITLE0=昴‐すばる‐
TTITLE1=英雄
TTITLE2=ダンディズム
TTITLE3=男と女に戻る時
TTITLE4=アデュー巴里
TTITLE5=Far aways
TTITLE6=２２歳
TTITLE7=いい日旅立ち
TTITLE8=忘れていいの‐愛の幕切れ‐
TTITLE9=DREAMS COME TRUE
TTITLE10=輪舞‐ロンド‐
TTITLE11=群青
TTITLE12=チャンピオン
TTITLE13=動天
EXTD=
EXTT0=
EXTT1=
EXTT2=
EXTT3=
EXTT4=
EXTT5=
EXTT6=
EXTT7=
EXTT8=
EXTT9=
EXTT10=
EXTT11=
EXTT12=
EXTT13=
PLAYORDER=
